<svg width="24" height="24" viewBox="0 0 24 24" fill="none" xmlns="http://www.w3.org/2000/svg">
<g clip-path="url(#clip0_587_8153)">
<path d="M12.0009 21.6199C11.8536 21.6194 11.7106 21.5702 11.5942 21.4799C7.88755 18.5999 5.33422 16.1199 3.54755 13.6732C1.26755 10.5466 0.747555 7.65988 2.00089 5.09322C2.89422 3.25988 5.46089 1.75988 8.46089 2.63322C9.89125 3.04638 11.1392 3.93241 12.0009 5.14655C12.8626 3.93241 14.1105 3.04638 15.5409 2.63322C18.5342 1.77322 21.1076 3.25988 22.0009 5.09322C23.2542 7.65988 22.7342 10.5466 20.4542 13.6732C18.6676 16.1199 16.1142 18.5999 12.4076 21.4799C12.2912 21.5702 12.1482 21.6194 12.0009 21.6199ZM6.75422 3.71988C6.04039 3.6921 5.33247 3.85925 4.70645 4.20338C4.08043 4.54752 3.55996 5.05564 3.20089 5.67322C2.16755 7.79322 2.63422 10.1532 4.62755 12.8799C6.74593 15.6123 9.2265 18.0435 12.0009 20.1066C14.7748 18.0455 17.2554 15.6166 19.3742 12.8866C21.3742 10.1532 21.8342 7.79322 20.8009 5.67988C20.1342 4.34655 18.1342 3.28655 15.9076 3.91322C15.1936 4.12422 14.5317 4.48236 13.9645 4.9646C13.3973 5.44684 12.9373 6.04249 12.6142 6.71322C12.564 6.83549 12.4786 6.94007 12.3687 7.01367C12.2589 7.08728 12.1297 7.12657 11.9976 7.12657C11.8654 7.12657 11.7362 7.08728 11.6264 7.01367C11.5166 6.94007 11.4311 6.83549 11.3809 6.71322C11.0602 6.04081 10.601 5.44377 10.0335 4.96123C9.46592 4.47869 8.80279 4.12155 8.08756 3.91322C7.65421 3.78735 7.20547 3.72229 6.75422 3.71988Z" fill="#D63C3C"/>
</g>
<defs>
<clipPath id="clip0_587_8153">
<rect width="24" height="24" fill="white"/>
</clipPath>
</defs>
</svg>
