<svg width="50" height="50" viewBox="0 0 50 50" fill="none" xmlns="http://www.w3.org/2000/svg">
<mask id="mask0_443_2259" style="mask-type:alpha" maskUnits="userSpaceOnUse" x="0" y="0" width="50" height="50">
<path d="M28.9062 37.3498L29.3381 37.1528C29.4481 37.1026 29.5679 37.0775 29.6875 37.0775C29.8071 37.0775 29.9269 37.1026 30.0369 37.1528L30.4688 37.3498V35.6514H28.9062V37.3498Z" fill="#0D0DAE"/>
<path d="M18.75 28.5211C18.8697 28.5211 18.9894 28.5463 19.0994 28.5964L19.5312 28.7935V27.0951H17.9688V28.7935L18.4006 28.5964C18.5106 28.5463 18.6303 28.5211 18.75 28.5211Z" fill="#0D0DAE"/>
<path d="M12.8494 39.1412C12.6071 39.2517 12.3196 39.2399 12.0893 39.11C11.859 38.9802 11.7188 38.7506 11.7188 38.5035V35.6514H10.1562V42.7817H14.8438V38.9442L14.0625 38.5876L12.8494 39.1412ZM12.5 42.0687H11.7188C11.2873 42.0687 10.9375 41.7494 10.9375 41.3556C10.9375 40.9619 11.2873 40.6426 11.7188 40.6426H12.5C12.9314 40.6426 13.2812 40.9619 13.2812 41.3556C13.2812 41.7494 12.9314 42.0687 12.5 42.0687Z" fill="#0D0DAE"/>
<path d="M19.5312 37.3498L19.9631 37.1528C20.0731 37.1026 20.1929 37.0775 20.3125 37.0775C20.4321 37.0775 20.5519 37.1026 20.6619 37.1528L21.0938 37.3498V35.6514H19.5312V37.3498Z" fill="#0D0DAE"/>
<path d="M31.25 28.5211C31.3697 28.5211 31.4894 28.5463 31.5994 28.5964L32.0312 28.7935V27.0951H30.4688V28.7935L30.9006 28.5964C31.0106 28.5463 31.1303 28.5211 31.25 28.5211Z" fill="#0D0DAE"/>
<path d="M35.1562 27.0951H33.5938V29.9472C33.5938 30.1942 33.4535 30.4238 33.2232 30.5537C33.0978 30.6245 32.9553 30.6602 32.8125 30.6602C32.693 30.6602 32.5734 30.6352 32.4631 30.5849L31.25 30.0313L30.4688 30.3878V34.2253H35.1562V27.0951ZM33.5957 33.5123C33.1643 33.5123 32.814 33.1931 32.814 32.7993C32.814 32.4055 33.1633 32.0863 33.5947 32.0863H33.5957C34.0272 32.0863 34.377 32.4055 34.377 32.7993C34.377 33.1931 34.0271 33.5123 33.5957 33.5123Z" fill="#0D0DAE"/>
<path d="M28.9062 29.9472V27.0951H27.3438V29.9472C27.3438 30.1942 27.2035 30.4238 26.9732 30.5537C26.8478 30.6245 26.7053 30.6602 26.5625 30.6602C26.443 30.6602 26.3234 30.6352 26.2131 30.5849L25 30.0313L23.7869 30.5849C23.5446 30.6954 23.2571 30.6836 23.0268 30.5537C22.7965 30.4238 22.6562 30.1942 22.6562 29.9472V27.0951H21.0938V29.9472V34.2253H28.9062V29.9472ZM23.4375 33.5123H22.6562C22.2248 33.5123 21.875 33.1931 21.875 32.7993C21.875 32.4055 22.2248 32.0863 22.6562 32.0863H23.4375C23.8689 32.0863 24.2188 32.4055 24.2188 32.7993C24.2188 33.1931 23.8689 33.5123 23.4375 33.5123ZM27.3457 33.5123C26.9143 33.5123 26.564 33.1931 26.564 32.7993C26.564 32.4055 26.9133 32.0863 27.3447 32.0863H27.3457C27.7772 32.0863 28.127 32.4055 28.127 32.7993C28.127 33.1931 27.7771 33.5123 27.3457 33.5123Z" fill="#0D0DAE"/>
<path d="M13.2812 37.3498L13.7131 37.1528C13.8231 37.1026 13.9429 37.0775 14.0625 37.0775C14.1821 37.0775 14.3019 37.1026 14.4119 37.1528L14.8438 37.3498V35.6514H13.2812V37.3498Z" fill="#0D0DAE"/>
<path d="M35.1562 37.3498L35.5881 37.1528C35.6981 37.1026 35.8179 37.0775 35.9375 37.0775C36.0571 37.0775 36.1769 37.1026 36.2869 37.1528L36.7188 37.3498V35.6514H35.1562V37.3498Z" fill="#0D0DAE"/>
<path d="M25 28.5211C25.1197 28.5211 25.2394 28.5463 25.3494 28.5964L25.7812 28.7935V27.0951H24.2188V28.7935L24.6506 28.5964C24.7606 28.5463 24.8803 28.5211 25 28.5211Z" fill="#0D0DAE"/>
<path d="M22.6562 38.5035C22.6562 38.7506 22.516 38.9802 22.2857 39.11C22.1603 39.1808 22.0178 39.2165 21.875 39.2165C21.7555 39.2165 21.6359 39.1916 21.5256 39.1412L20.3125 38.5876L19.0994 39.1412C18.8571 39.2517 18.5696 39.2399 18.3393 39.11C18.109 38.9802 17.9688 38.7506 17.9688 38.5035V35.6514H16.4062V38.5035V42.7817H24.2188V35.6514H22.6562V38.5035ZM18.75 42.0687H17.9688C17.5373 42.0687 17.1875 41.7494 17.1875 41.3556C17.1875 40.9619 17.5373 40.6426 17.9688 40.6426H18.75C19.1814 40.6426 19.5312 40.9619 19.5312 41.3556C19.5312 41.7494 19.1814 42.0687 18.75 42.0687ZM22.6582 40.6426C23.0897 40.6426 23.4395 40.9619 23.4395 41.3556C23.4395 41.7494 23.0897 42.0687 22.6582 42.0687C22.2268 42.0687 21.8765 41.7494 21.8765 41.3556C21.8765 40.9619 22.2258 40.6426 22.6572 40.6426H22.6582Z" fill="#0D0DAE"/>
<path d="M38.2812 35.6514V38.5035C38.2812 38.7506 38.141 38.9802 37.9107 39.11C37.7853 39.1808 37.6428 39.2165 37.5 39.2165C37.3805 39.2165 37.2609 39.1916 37.1506 39.1412L35.9375 38.5876L35.1562 38.9442V42.7817H39.8438V35.6514H38.2812ZM38.2832 42.0687C37.8518 42.0687 37.5015 41.7494 37.5015 41.3556C37.5015 40.9619 37.8508 40.6426 38.2822 40.6426H38.2832C38.7147 40.6426 39.0645 40.9619 39.0645 41.3556C39.0645 41.7494 38.7146 42.0687 38.2832 42.0687Z" fill="#0D0DAE"/>
<path d="M32.0312 38.5035C32.0312 38.7506 31.891 38.9802 31.6607 39.11C31.5353 39.1808 31.3928 39.2165 31.25 39.2165C31.1305 39.2165 31.0109 39.1916 30.9006 39.1412L29.6875 38.5876L28.4744 39.1412C28.2321 39.2517 27.9446 39.2399 27.7143 39.11C27.484 38.9802 27.3438 38.7506 27.3438 38.5035V35.6514H25.7812V42.7817H33.5938V38.5035V35.6514H32.0312V38.5035ZM28.125 42.0687H27.3438C26.9123 42.0687 26.5625 41.7494 26.5625 41.3556C26.5625 40.9619 26.9123 40.6426 27.3438 40.6426H28.125C28.5564 40.6426 28.9062 40.9619 28.9062 41.3556C28.9062 41.7494 28.5564 42.0687 28.125 42.0687ZM32.0332 40.6426C32.4647 40.6426 32.8145 40.9619 32.8145 41.3556C32.8145 41.7494 32.4647 42.0687 32.0332 42.0687C31.6018 42.0687 31.2515 41.7494 31.2515 41.3556C31.2515 40.9619 31.6008 40.6426 32.0322 40.6426H32.0332Z" fill="#0D0DAE"/>
<path d="M19.5312 30.3878L18.75 30.0313L17.5369 30.5849C17.2945 30.6954 17.0071 30.6836 16.7768 30.5537C16.5465 30.4238 16.4062 30.1942 16.4062 29.9472V27.0951H14.8438V34.2253H19.5312V30.3878ZM17.1875 33.5123H16.4062C15.9748 33.5123 15.625 33.1931 15.625 32.7993C15.625 32.4055 15.9748 32.0863 16.4062 32.0863H17.1875C17.6189 32.0863 17.9688 32.4055 17.9688 32.7993C17.9688 33.1931 17.6189 33.5123 17.1875 33.5123Z" fill="#0D0DAE"/>
<path d="M5.46875 42.7817H3.90625V17.1778L3.93818 17.1628C4.07939 17.8618 4.69521 18.4091 5.46875 18.5173V42.7817ZM42.9688 22.8169H7.03125V21.3908H42.9688V22.8169ZM42.9688 19.9648H7.03125V18.5387H42.9688V19.9648ZM44.252 17.1127H43.75H6.25H5.74805C5.59404 17.1127 5.46875 16.9983 5.46875 16.8578V16.4402L7.06514 15.6866H42.9349L44.5312 16.4402V16.8578C44.5312 16.9983 44.406 17.1127 44.252 17.1127ZM10.0859 14.2606L25 7.22003L39.9141 14.2606H10.0859ZM46.0938 42.7817H44.5312V18.5173C45.3048 18.409 45.9207 17.8618 46.0618 17.1628L46.0938 17.1778V42.7817ZM46.875 15.9411L25.359 5.7839C25.2463 5.73078 25.1232 5.70422 25 5.70422C24.8768 5.70422 24.7537 5.73078 24.641 5.7839L3.125 15.9411V13.2685L25 2.94186L46.875 13.2685V15.9411Z" fill="#0D0DAE"/>
</mask>
<g mask="url(#mask0_443_2259)">
<rect x="-7.5" y="1.25" width="64.0625" height="47.1831" fill="#D63C3C"/>
</g>
</svg>
