<svg width="30" height="30" viewBox="0 0 30 30" fill="none" xmlns="http://www.w3.org/2000/svg">
<path d="M4.37517 12.1463L14.3427 21.8625C14.5177 22.0332 14.7526 22.1287 14.997 22.1287C15.2415 22.1287 15.4763 22.0332 15.6514 21.8625L25.6227 12.1463C25.7043 12.0668 25.7692 11.9717 25.8135 11.8667C25.8578 11.7618 25.8806 11.649 25.8806 11.535C25.8806 11.4211 25.8578 11.3083 25.8135 11.2033C25.7692 11.0983 25.7043 11.0032 25.6227 10.9238C25.4552 10.7602 25.2305 10.6687 24.9964 10.6687C24.7624 10.6687 24.5376 10.7602 24.3702 10.9238L14.997 20.0606L5.62579 10.9238C5.45845 10.7608 5.23408 10.6696 5.00048 10.6696C4.76688 10.6696 4.54252 10.7608 4.37517 10.9238C4.29353 11.0032 4.22863 11.0983 4.18432 11.2033C4.14002 11.3083 4.11719 11.4211 4.11719 11.535C4.11719 11.649 4.14002 11.7618 4.18432 11.8667C4.22863 11.9717 4.29353 12.0668 4.37517 12.1463Z" fill="white"/>
</svg>
