<svg width="30" height="30" viewBox="0 0 30 30" fill="none" xmlns="http://www.w3.org/2000/svg">
<path d="M26.4294 8.5715H10.7151M7.85798 8.5715H3.57227M26.4294 22.8572H10.7151M7.85798 22.8572H3.57227M19.2866 15.7144H3.57227M26.4294 15.7144H22.1437M9.28655 5.71436C9.66543 5.71436 10.0288 5.86487 10.2967 6.13277C10.5646 6.40068 10.7151 6.76405 10.7151 7.14293V10.0001C10.7151 10.379 10.5646 10.7423 10.2967 11.0102C10.0288 11.2781 9.66543 11.4286 9.28655 11.4286C8.90767 11.4286 8.54431 11.2781 8.2764 11.0102C8.00849 10.7423 7.85798 10.379 7.85798 10.0001V7.14293C7.85798 6.76405 8.00849 6.40068 8.2764 6.13277C8.54431 5.86487 8.90767 5.71436 9.28655 5.71436ZM9.28655 20.0001C9.66543 20.0001 10.0288 20.1506 10.2967 20.4185C10.5646 20.6864 10.7151 21.0498 10.7151 21.4286V24.2858C10.7151 24.6647 10.5646 25.028 10.2967 25.2959C10.0288 25.5638 9.66543 25.7144 9.28655 25.7144C8.90767 25.7144 8.54431 25.5638 8.2764 25.2959C8.00849 25.028 7.85798 24.6647 7.85798 24.2858V21.4286C7.85798 21.0498 8.00849 20.6864 8.2764 20.4185C8.54431 20.1506 8.90767 20.0001 9.28655 20.0001ZM20.7151 12.8572C21.094 12.8572 21.4574 13.0077 21.7253 13.2756C21.9932 13.5435 22.1437 13.9069 22.1437 14.2858V17.1429C22.1437 17.5218 21.9932 17.8852 21.7253 18.1531C21.4574 18.421 21.094 18.5715 20.7151 18.5715C20.3362 18.5715 19.9729 18.421 19.705 18.1531C19.4371 17.8852 19.2866 17.5218 19.2866 17.1429V14.2858C19.2866 13.9069 19.4371 13.5435 19.705 13.2756C19.9729 13.0077 20.3362 12.8572 20.7151 12.8572Z" stroke="#101428" stroke-linecap="round" stroke-linejoin="round"/>
</svg>
