<svg width="28" height="28" viewBox="0 0 28 28" fill="none" xmlns="http://www.w3.org/2000/svg">
<path d="M14.6041 6.19288C15.1822 5.54132 15.8851 5.01222 16.6711 4.63684C17.4572 4.26147 18.3105 4.04744 19.1806 4.00738C20.0508 3.96733 20.9201 4.10207 21.7373 4.40364C22.5545 4.70522 23.303 5.16751 23.9385 5.76321C24.5741 6.35891 25.0838 7.07594 25.4375 7.87194C25.7913 8.66794 25.982 9.52677 25.9982 10.3977C26.0145 11.2686 25.8561 12.134 25.5323 12.9426C25.2085 13.7513 24.726 14.4869 24.1131 15.1059L14.5331 24.7779C14.4634 24.8483 14.3804 24.9043 14.2889 24.9424C14.1974 24.9806 14.0992 25.0002 14.0001 25.0002C13.901 25.0002 13.8028 24.9806 13.7114 24.9424C13.6199 24.9043 13.5369 24.8483 13.4671 24.7779L3.88712 15.1059C2.72511 13.9327 2.05167 12.3622 2.00285 10.7117C1.95403 9.06121 2.53348 7.45368 3.62412 6.21388C6.21212 3.27088 10.7941 3.26088 13.3961 6.19288L14.0001 6.87288L14.6041 6.19288Z" fill="#FC0131"/>
</svg>
