<svg width="28" height="28" viewBox="0 0 28 28" fill="none" xmlns="http://www.w3.org/2000/svg">
<path d="M15.1649 6.69095L15.1651 6.69065C15.6767 6.11405 16.2987 5.64582 16.9943 5.31363C17.6899 4.98144 18.4451 4.79203 19.2151 4.75659C19.9851 4.72114 20.7545 4.84038 21.4777 5.10726C22.2009 5.37414 22.8632 5.78325 23.4256 6.31041C23.9881 6.83758 24.4391 7.47212 24.7522 8.17654C25.0653 8.88096 25.234 9.64098 25.2484 10.4117C25.2628 11.1824 25.1226 11.9482 24.836 12.6638C24.5495 13.3795 24.1225 14.0304 23.5801 14.5782L14.0003 24.2501L14.0001 24.2502L14 24.2501L4.41998 14.5781C3.39167 13.5399 2.79572 12.1502 2.75252 10.6896C2.70932 9.22895 3.22209 7.8064 4.18724 6.70926L4.18733 6.70916C6.47746 4.10489 10.5324 4.09584 12.8352 6.69071L12.8354 6.69095L13.4394 7.37095L14.0001 8.00225L14.5609 7.37095L15.1649 6.69095Z" fill="white" fill-opacity="0.4" stroke="white" stroke-width="1.5"/>
</svg>
