<svg width="54" height="50" viewBox="0 0 54 50" fill="none" xmlns="http://www.w3.org/2000/svg">
<rect x="0.5" y="0.5" width="53" height="49" rx="9.5" stroke="#D63C3C"/>
<g clip-path="url(#clip0_587_8152)">
<path d="M27.0009 34.6199C26.8536 34.6194 26.7106 34.5702 26.5942 34.4799C22.8876 31.5999 20.3342 29.1199 18.5476 26.6732C16.2676 23.5466 15.7476 20.6599 17.0009 18.0932C17.8942 16.2599 20.4609 14.7599 23.4609 15.6332C24.8912 16.0464 26.1392 16.9324 27.0009 18.1466C27.8626 16.9324 29.1105 16.0464 30.5409 15.6332C33.5342 14.7732 36.1076 16.2599 37.0009 18.0932C38.2542 20.6599 37.7342 23.5466 35.4542 26.6732C33.6676 29.1199 31.1142 31.5999 27.4076 34.4799C27.2912 34.5702 27.1482 34.6194 27.0009 34.6199ZM21.7542 16.7199C21.0404 16.6921 20.3325 16.8592 19.7065 17.2034C19.0804 17.5475 18.56 18.0556 18.2009 18.6732C17.1676 20.7932 17.6342 23.1532 19.6276 25.8799C21.7459 28.6123 24.2265 31.0435 27.0009 33.1066C29.7748 31.0455 32.2554 28.6166 34.3742 25.8866C36.3742 23.1532 36.8342 20.7932 35.8009 18.6799C35.1342 17.3466 33.1342 16.2866 30.9076 16.9132C30.1936 17.1242 29.5317 17.4824 28.9645 17.9646C28.3973 18.4468 27.9373 19.0425 27.6142 19.7132C27.564 19.8355 27.4786 19.9401 27.3687 20.0137C27.2589 20.0873 27.1297 20.1266 26.9976 20.1266C26.8654 20.1266 26.7362 20.0873 26.6264 20.0137C26.5166 19.9401 26.4311 19.8355 26.3809 19.7132C26.0602 19.0408 25.601 18.4438 25.0335 17.9612C24.4659 17.4787 23.8028 17.1215 23.0876 16.9132C22.6542 16.7874 22.2055 16.7223 21.7542 16.7199Z" fill="#D63C3C"/>
</g>
<defs>
<clipPath id="clip0_587_8152">
<rect width="24" height="24" fill="white" transform="translate(15 13)"/>
</clipPath>
</defs>
</svg>
