<svg width="111" height="74" viewBox="0 0 111 74" fill="none" xmlns="http://www.w3.org/2000/svg">
<g id="logo_tdpsm (1) 1" clip-path="url(#clip0_633_632)">
<path id="Vector" fill-rule="evenodd" clip-rule="evenodd" d="M57.2396 0.0821159C57.1568 0.0821159 56.4941 0.164338 55.6657 0.24656C54.8374 0.328783 53.9262 0.411005 53.5948 0.493227C51.9381 0.739894 51.1926 0.904338 50.6956 0.98656C50.4471 1.06878 49.8672 1.151 49.453 1.23323C46.7195 1.80878 43.903 2.631 41.1695 3.61767C40.6724 3.78212 40.0097 4.02878 39.5956 4.19323C39.1814 4.35767 38.85 4.43989 38.6844 4.52212C38.6015 4.60434 37.9389 4.851 37.1933 5.09767C35.5366 5.75545 35.4538 5.75545 33.7971 6.57767C33.3 6.82434 32.8859 6.98878 32.803 6.98878C32.7202 6.98878 30.6493 8.05767 29.1583 8.79767C27.5844 9.61989 27.5015 9.70212 27.0045 9.94878C26.756 10.1132 26.5075 10.2777 26.4247 10.2777C26.3418 10.3599 25.9277 10.5243 25.6792 10.6888C25.3478 10.8532 25.0165 11.0177 24.9336 11.0999C24.8508 11.1821 24.6023 11.2643 24.5195 11.3466C24.3538 11.4288 23.9396 11.6754 23.5254 11.9221C22.4486 12.5799 21.9515 12.9088 21.0403 13.4843C20.6262 13.731 20.212 14.0599 20.1292 14.0599C19.715 14.3066 17.9754 15.4577 17.6441 15.7043C17.3956 15.8688 17.2299 16.0332 17.1471 16.0332C17.0642 16.0332 16.9814 16.1154 16.8986 16.1977C16.8157 16.2799 16.7329 16.3621 16.65 16.3621C16.5672 16.3621 16.4844 16.4443 16.4844 16.4443C16.153 16.691 14.9933 17.5954 14.4135 18.0066C14.0821 18.2532 13.7508 18.4999 13.668 18.4999C13.5851 18.4999 13.4194 18.6643 13.2538 18.8288C11.5971 20.0621 10.8515 20.7199 11.2657 20.6377L11.9284 20.1443C12.0112 20.0621 12.3426 19.8155 12.6739 19.651C13.0053 19.4043 13.5023 19.0755 13.8336 18.911C14.3306 18.5821 15.4903 17.8421 15.8217 17.6777C15.9045 17.5954 16.2359 17.431 16.65 17.1843C17.3956 16.691 20.0463 15.1288 20.3777 14.9643C20.4605 14.8821 20.709 14.7999 20.7918 14.7177C21.2889 14.3888 21.8687 14.0599 22.6971 13.5666C23.7739 12.991 28.0814 10.8532 28.1642 10.8532C28.1642 10.8532 28.4956 10.6888 28.8269 10.6066C29.1583 10.4421 29.6553 10.2777 29.9038 10.1132C30.9806 9.70212 32.0575 9.20878 32.306 9.12656C32.9687 8.79767 37.1105 7.48212 38.1045 7.31767C38.353 7.23545 38.7672 7.15323 38.85 7.071C39.0157 6.98878 39.1814 6.98878 39.3471 6.98878C39.5127 6.98878 39.7612 6.90656 40.0097 6.82434C40.4239 6.74212 41.0038 6.57767 42.8262 6.331C46.2224 5.83767 50.3642 5.91989 52.9321 6.65989C56.2456 7.56434 58.8963 9.53767 60.1389 12.0866C60.2217 12.3332 60.3874 12.4977 60.3874 12.4977C60.4702 12.4977 60.4702 12.6621 60.4702 12.7443C60.4702 12.8266 60.553 12.991 60.553 12.991C60.7187 13.1554 61.3814 15.1288 61.3814 15.3755C61.3814 15.4577 61.4642 15.7866 61.5471 16.0332C62.4583 18.9932 61.6299 22.0354 61.4642 24.831C61.4642 25.0777 61.3814 25.6532 61.2157 25.8999C61.1329 26.2288 61.05 26.6399 61.05 26.7221C61.05 26.8866 61.05 26.9688 60.9672 27.051C60.8844 27.051 60.8844 27.2977 60.8015 27.6266C60.8015 27.8732 60.7187 28.2021 60.6359 28.2843C60.553 28.3666 60.4702 28.6132 60.4702 28.7777C60.056 30.2577 59.3105 32.3955 58.565 34.0399C58.4821 34.2866 58.3993 34.451 58.3993 34.5332C58.3993 34.7799 56.2456 39.0555 55.5 40.2888C55.3344 40.6177 55.1687 40.8643 55.1687 40.8643C55.1687 40.9466 54.0918 42.6732 53.8433 43.0843C53.7605 43.2488 53.3463 43.9066 52.9321 44.5643C52.518 45.2221 52.1038 45.7977 52.1038 45.8799C52.0209 45.9621 51.6896 46.4555 51.1097 47.2777C50.8612 47.6888 50.5299 48.0999 50.3642 48.2643C50.0329 48.5932 50.0329 48.6755 50.3642 48.8399C51.8553 49.1688 52.9321 49.5799 54.3403 49.9088L55.3344 50.2377C55.5829 50.3199 55.9971 50.4021 56.1627 50.4843C56.3284 50.4843 56.7426 50.6488 57.1568 50.731C57.8195 50.9777 59.559 51.3888 60.4702 51.6354C61.6299 51.8821 61.9612 51.9643 62.2097 52.0466C62.3754 52.1288 62.7896 52.211 63.1209 52.2932C63.4523 52.3755 64.0321 52.4577 64.4463 52.5399C65.1918 52.7043 66.0202 52.8688 67.0142 53.0332C67.2627 53.1154 67.8426 53.1977 68.2568 53.2799C68.6709 53.3621 69.3336 53.4443 69.9135 53.5266C70.4105 53.6088 71.0732 53.691 71.4045 53.7732C72.2329 53.9377 73.8896 54.1021 75.0493 54.1843C80.5993 54.6777 85.9836 55.0888 91.6165 54.3488C92.1963 54.2666 92.7762 54.1843 92.9418 54.1843C93.4389 54.1021 94.1844 54.0199 96.421 53.5266C97.0836 53.3621 97.9948 53.1154 98.5747 52.951C99.403 52.7043 100.314 52.4577 100.563 52.2932C100.646 52.211 100.977 52.1288 101.225 51.9643C102.219 51.6355 103.131 51.1421 103.876 50.731C105.864 49.7443 109.426 46.4555 110.42 43.9888C110.42 43.9066 110.42 43.8243 110.503 43.7421C110.917 43.0021 111.166 40.0421 110.834 38.8088C110.752 38.5621 110.669 38.151 110.669 37.9043C110.586 37.411 110.42 36.8354 110.172 36.3421C110.089 36.2599 110.006 35.931 109.923 35.6021C109.509 34.451 108.266 32.1488 107.024 30.2577C106.775 29.8466 104.953 27.6266 104.622 27.2154C103.379 25.8999 101.64 24.1732 100.811 23.351C100.231 22.8577 99.6515 22.2821 99.403 22.1177L99.0717 21.7888V20.3088C98.9889 17.1843 97.5807 14.5532 94.8471 12.4977C94.4329 12.251 94.1015 11.9221 94.1015 11.9221C94.0187 11.8399 93.5217 11.511 93.356 11.4288C93.2732 11.4288 93.1075 11.2643 92.9418 11.1821C92.7762 11.0999 92.6105 10.9354 92.4448 10.9354C92.362 10.8532 92.1135 10.771 91.9478 10.6066C91.7821 10.5243 91.368 10.2777 91.1195 10.1132C88.9657 9.12656 88.3859 8.79767 87.7232 8.63323C87.309 8.46878 86.6463 8.22212 86.2321 8.05767C86.0665 7.97545 85.4038 7.811 84.8239 7.56434C84.2441 7.39989 83.4986 7.15323 83.3329 7.071C82.753 6.90656 82.0075 6.65989 80.9306 6.49545C80.268 6.33101 79.2739 6.16656 78.6941 6.00212C78.1971 5.83767 77.6172 5.75545 76.209 5.50878C75.5463 5.42656 74.8836 5.26212 74.1381 5.17989C73.2269 5.09767 72.8127 4.93323 72.4814 4.43989C70.5762 1.891 67.5112 0.411005 63.3694 -0.164551C62.2926 0.0821159 59.7247 -0.0823286 57.2396 0.0821159ZM75.1321 9.20878C75.7948 9.45545 76.1262 9.61989 76.9545 10.031C78.3627 10.771 78.7769 11.0177 79.0254 11.1821C80.4336 12.251 81.759 12.991 82.9187 14.7177C84.3269 16.9377 84.8239 19.8154 84.0784 22.0354C83.9956 22.1999 83.9127 22.5288 83.8299 22.7755C83.7471 23.0221 83.5814 23.4332 83.4986 23.6799C83.4157 23.8443 83.2501 24.2554 83.1672 24.5021C82.8359 25.2421 81.5105 27.5443 81.0963 28.0377C81.0135 28.1199 80.8478 28.3666 80.5993 28.6132C80.3508 28.8599 80.1851 29.1066 80.1851 29.1888C80.1851 29.1888 79.8538 29.5177 79.6053 29.9288C78.8597 30.8332 76.5404 33.1355 75.215 34.2866C74.6351 34.7799 74.1381 35.2732 73.9724 35.3554C73.8068 35.5199 70.5762 37.9043 70.3277 38.0688C70.2448 38.151 69.9135 38.3155 69.665 38.5621C68.3396 39.4666 67.8426 39.7955 67.1799 40.2066C66.7657 40.4532 66.3515 40.6999 66.103 40.8643C65.9374 41.0288 65.6889 41.111 65.6889 41.111C65.606 41.111 65.4403 41.1932 65.2747 41.3577C65.109 41.5221 64.8605 41.6043 64.7777 41.6866C64.612 41.7688 64.4463 41.851 64.3635 41.9332C63.0381 42.7555 61.4642 43.5777 58.9791 44.8932C58.2336 45.3043 55.9971 46.3732 54.9202 46.8666C54.5889 47.031 54.1747 47.1954 54.009 47.2777C52.1866 48.0999 51.7724 48.0999 53.6777 46.2088C55.9971 44.071 58.6478 41.4399 59.9732 40.1243C60.3874 39.7132 60.8844 39.1377 61.1329 38.8088C62.6239 37.2466 62.9553 36.8354 64.115 35.3554C64.7777 34.5332 65.3575 33.7932 65.5232 33.5466C65.6889 33.2999 66.1859 32.6421 66.6001 32.0666C67.0971 31.4088 67.5112 30.8332 67.5941 30.751C67.6769 30.6688 67.8426 30.4221 67.9254 30.3399C68.0083 30.2577 68.0911 30.0932 68.0911 30.0932C68.0911 30.011 69.0023 28.6954 69.4165 28.0377C69.4993 27.8732 69.5821 27.791 69.5821 27.7088C69.5821 27.7088 69.7478 27.4621 69.8307 27.2154C69.9963 26.9688 70.0792 26.8043 70.0792 26.7221C70.0792 26.7221 70.3277 26.311 70.5762 25.8177C70.8247 25.3243 71.2389 24.5843 71.4874 24.1732C71.7359 23.6799 71.9844 23.0221 72.1501 22.6932C72.4814 22.0354 72.5642 21.7888 72.8956 20.8021C72.9784 20.5554 73.2269 19.9799 73.3098 19.651C73.4754 19.3221 73.5583 18.911 73.6411 18.7466C73.6411 18.5821 73.7239 18.3354 73.8068 18.0888C73.8896 17.9243 73.9724 17.431 74.0553 16.9377C74.1381 16.5266 74.2209 15.951 74.3038 15.7866C74.5523 14.5532 74.6351 10.8532 74.3866 9.86656C74.3866 9.04434 74.5523 8.96212 75.1321 9.20878ZM98.1605 26.5577C98.6575 27.3799 99.403 28.8599 99.6516 29.8466C99.7344 30.1754 99.9 30.5043 99.9 30.6688C100.314 31.8199 100.397 34.1221 100.066 35.3554C99.9001 36.0955 99.7344 36.7532 99.6516 36.9177C99.5687 36.9999 99.403 37.411 99.2374 37.7399C97.8292 40.6177 93.6874 43.7421 88.9657 45.551C87.7232 46.0443 86.7292 46.3732 86.2321 46.5377C85.9836 46.6199 85.4038 46.7843 85.0724 46.8666C84.7411 46.9488 84.2441 47.1132 83.9956 47.1954C83.7471 47.2777 83.3329 47.3599 83.0015 47.4421C82.753 47.5243 82.4217 47.6066 82.3389 47.6066C82.256 47.6066 81.9247 47.6888 81.6762 47.771C81.0135 47.9354 79.4396 48.2643 77.203 48.5932C76.6232 48.6754 74.8008 48.9221 73.8068 49.0043C73.2269 49.0866 72.4814 49.1688 72.0672 49.1688C68.1739 49.6621 52.7665 49.3332 52.7665 48.7577C52.8493 48.5932 53.4292 48.3466 54.9202 48.0999C55.3344 48.0177 55.6657 47.9355 55.7486 47.9355C55.8314 47.9355 56.1627 47.771 56.4941 47.771C57.1568 47.6066 57.6538 47.5243 58.8963 47.1954C59.2277 47.1132 59.6418 47.031 59.8903 46.9488C60.3045 46.8666 60.9672 46.7021 61.7956 46.4555C62.0441 46.3732 62.4583 46.291 62.7896 46.2088C63.1209 46.1266 63.5351 45.9621 63.7836 45.9621C63.9493 45.8799 64.4463 45.7155 64.8605 45.6332C65.2747 45.551 65.6889 45.3866 65.9374 45.3043C66.103 45.2221 67.0142 44.9755 67.8426 44.7288C68.6709 44.4821 69.4165 44.2355 69.4993 44.1532C69.5821 44.1532 69.7478 44.071 69.9963 43.9888C70.162 43.9888 70.4105 43.9066 70.4933 43.8243C70.659 43.7421 71.4045 43.4954 71.7359 43.4132C71.9015 43.4132 72.0672 43.331 72.2329 43.2488C72.3157 43.1666 72.6471 43.0843 72.8956 43.0021C73.1441 42.9199 73.8896 42.591 74.5523 42.3443C75.215 42.0977 75.9605 41.7688 76.209 41.6866C76.4575 41.6043 76.706 41.5221 76.7889 41.4399C76.7889 41.3577 76.8717 41.3577 76.9545 41.3577C77.0374 41.3577 77.5344 41.111 78.0314 40.8643L79.0254 40.371C79.1083 40.371 80.3508 39.7955 81.0135 39.4666C82.8359 38.4799 84.0784 37.9043 84.9068 37.411C85.4038 37.0821 85.9008 36.8354 85.9008 36.8354L86.2321 36.671C86.3978 36.5888 86.8948 36.1777 87.4747 35.8488L88.4687 35.191L89.1314 34.6977C92.4448 32.4777 95.4269 29.5177 97.3321 26.4755C97.5807 25.9821 97.7463 25.9821 98.1605 26.5577Z" fill="#D63C3C"/>
<path id="Vector_2" fill-rule="evenodd" clip-rule="evenodd" d="M22.7803 19.0756C21.0407 19.2401 19.6325 19.3223 18.7213 19.4867C18.2243 19.5689 17.4788 19.6512 17.0646 19.7334C16.4848 19.8156 15.9877 19.9801 15.4079 20.0623C14.7452 20.1445 13.5027 20.4734 12.7571 20.7201C12.343 20.8845 9.77505 21.7889 9.60938 21.7889C9.44371 21.7889 7.04147 23.0223 6.62729 23.2689C6.37878 23.4334 6.21311 23.5156 6.21311 23.5156C6.13028 23.5156 4.88774 24.4201 4.39072 24.8312C2.4855 26.3934 1.07729 28.3667 0.580276 30.0934C0.0832606 31.6556 0.000424758 34.1223 0.414604 35.6845C0.580276 36.3423 0.828783 37.0823 0.911619 37.4112C0.994455 37.6578 1.24296 38.3156 1.40863 38.7267C1.57431 39.1378 1.82281 39.5489 1.98848 39.9601C2.23699 40.4534 2.56834 41.0289 2.81684 41.4401C3.06535 41.7689 3.23102 42.0978 3.23102 42.0978C3.23102 42.2623 4.72207 44.3178 5.05341 44.6467C5.38475 45.0578 6.29595 46.1267 6.29595 46.2089C6.29595 46.2089 6.62729 46.6201 7.04147 47.0312C8.0355 48.1823 9.77505 49.8267 11.5974 51.4712L12.0116 51.8823V53.3623C12.0945 55.3356 12.2601 55.9934 13.0885 57.6378C13.6683 58.7067 15.4907 60.6801 16.5676 61.4201C16.8989 61.6667 17.2303 61.8312 17.3131 61.9134C17.3959 61.9956 17.4788 62.0778 17.5616 62.0778C17.6445 62.0778 18.4728 62.6534 18.7213 62.7356C18.8042 62.7356 18.9698 62.9001 19.2183 62.9823C19.5497 63.1467 21.2064 64.0512 21.8691 64.2978C22.8631 64.7089 24.2713 65.2845 25.431 65.6134C25.928 65.7778 26.5079 65.9423 26.6736 66.0245C27.2534 66.2712 27.9161 66.3534 28.496 66.6001C28.7445 66.6823 29.0758 66.7645 29.3243 66.8467C29.5728 66.929 29.987 67.0112 30.3183 67.0934C32.8034 67.6689 34.7086 68.0801 36.6967 68.3267C38.0221 68.4912 38.3534 68.5734 38.6848 69.0667C40.093 71.1223 43.0751 72.8489 46.0571 73.4245C49.8676 74.0823 53.8437 74.0823 57.6542 73.5067C59.8907 73.1778 64.6952 72.1089 65.5236 71.7801C65.6064 71.6978 65.9377 71.6156 66.2691 71.5334C66.6004 71.4512 67.0974 71.2867 67.3459 71.2045C67.6773 71.1223 67.9258 71.0401 68.0086 71.0401C68.0915 71.0401 68.2571 70.9578 68.4228 70.8756C68.5885 70.7934 68.7542 70.7112 68.837 70.7112C68.9198 70.7112 69.0027 70.7112 69.0855 70.6289C69.1683 70.5467 69.4997 70.4645 69.9967 70.3001C70.4109 70.1356 70.8251 69.9712 70.9079 69.9712C70.9907 69.8889 71.0736 69.8889 71.1564 69.8889C71.2392 69.8889 71.4877 69.8067 71.7362 69.7245C71.9019 69.6423 72.1504 69.5601 72.2333 69.5601C72.3161 69.5601 72.4818 69.4778 72.5646 69.3956C72.7303 69.3134 73.1445 69.1489 73.5586 68.9845C74.4698 68.6556 75.381 68.2445 76.2094 67.8334C76.6236 67.6689 76.9549 67.5045 76.9549 67.5045C77.2862 67.5045 84.9071 63.5578 85.4042 63.229L85.5698 63.0645C85.6527 63.0645 86.978 62.2423 87.4751 61.9134C87.7236 61.749 87.9721 61.5845 88.0549 61.5845C88.2206 61.5023 88.5519 61.3378 91.1198 59.6112C91.9482 59.0356 92.6937 58.6245 92.6937 58.6245C92.7765 58.6245 93.025 58.3778 93.3564 58.2134C93.6877 57.9667 94.4333 57.4734 95.0131 57.0623C96.1728 56.2401 99.3206 53.8556 99.6519 53.6089C100.066 53.2801 100.646 52.9512 100.812 52.7867C100.894 52.7045 101.226 52.5401 101.143 52.4578C101.06 52.3756 100.812 52.4578 100.646 52.5401L100.149 52.8689C99.4863 53.2801 98.9064 53.7734 98.3265 54.1845C98.078 54.4312 97.581 54.6778 97.4154 54.8423C97.1668 55.0067 96.587 55.4178 96.09 55.7467C95.0131 56.4045 94.5989 56.7334 93.2736 57.5556C92.7765 57.8845 92.1967 58.2134 92.031 58.2956C91.8653 58.3778 91.6997 58.4601 91.6168 58.5423C91.534 58.6245 91.2027 58.7889 90.8713 58.9534C90.54 59.1178 90.2086 59.3645 90.043 59.3645C89.8773 59.4467 89.7945 59.5289 89.7945 59.5289C89.7945 59.5289 89.6288 59.6112 89.5459 59.6934C89.4631 59.7756 89.1318 59.9401 88.8833 60.0223C88.6348 60.1867 87.7236 60.6801 86.7295 61.1734C85.8183 61.6667 84.9071 62.0778 84.7415 62.1601C84.5758 62.2423 84.2445 62.4067 83.8303 62.5712L82.8362 63.0645C82.2564 63.3112 81.8422 63.4756 81.0139 63.8867C80.5168 64.0512 80.1027 64.2978 79.937 64.3801C79.7713 64.4623 79.6057 64.5445 79.5228 64.5445C79.44 64.5445 79.2743 64.6267 79.1086 64.7089C78.8601 64.8734 78.7773 64.8734 77.1206 65.4489C76.5407 65.6956 75.878 65.8601 75.7952 65.9423C75.7124 66.0245 75.381 66.1067 75.1325 66.1889C74.884 66.2712 74.4698 66.3534 74.1385 66.4356C73.393 66.6823 72.4818 66.9289 71.4049 67.0934C70.9079 67.1756 70.2452 67.3401 69.9139 67.4223C69.5825 67.5045 69.1683 67.5867 69.0027 67.5867C68.837 67.5867 68.4228 67.6689 68.0086 67.7512C66.1862 68.1623 61.0504 68.1623 59.8079 67.7512C59.5594 67.6689 59.228 67.5867 59.1452 67.5867C58.9795 67.5867 58.731 67.5045 58.4825 67.4223C58.234 67.3401 57.737 67.1756 57.4057 67.0934C55.3348 66.4356 53.181 65.0378 52.1042 63.6401C51.9385 63.4756 51.8557 63.3112 51.7728 63.229C50.7788 62.0778 49.8676 59.6112 49.3706 56.9801C49.2049 55.9112 49.1221 52.5401 49.3706 51.4712C49.4534 50.8956 49.4534 49.9912 49.6191 49.5801C49.6191 49.5801 50.0333 47.5245 50.0333 47.4423C50.0333 47.3601 50.1161 47.0312 50.1989 46.7023L50.5303 45.5512C50.6959 44.8934 50.9445 44.2356 51.1101 43.5778C51.2758 43.0023 51.4415 42.5089 51.7728 41.9334C51.8557 41.7689 51.9385 41.6045 51.9385 41.5223C51.9385 41.4401 51.9385 41.3578 52.0213 41.2756C52.1042 41.1934 52.187 40.8645 52.3527 40.5356C52.6012 39.8778 52.9325 39.2201 53.181 38.6445C53.5952 37.7401 55.2519 34.4512 55.9974 33.2178C55.9974 33.2178 56.9086 31.7378 56.9086 31.6556C56.9086 31.5734 57.1571 31.1623 57.4885 30.7512C57.737 30.3401 58.234 29.6823 58.4825 29.2712C59.3937 27.7912 60.5534 26.1467 61.0504 25.6534C61.2161 25.4067 61.2989 25.3245 60.8848 25.2423C60.4706 25.1601 59.7251 25.0778 58.4825 24.6667C58.3997 24.6667 57.9855 24.5023 57.5713 24.4201C56.9086 24.2556 56.1631 24.0089 55.5004 23.8445C55.2519 23.7623 54.8377 23.6801 54.5892 23.5978C53.678 23.3512 52.7668 23.0223 51.8557 22.8578C50.7788 22.6112 49.7848 22.3645 48.7079 22.1178C47.7967 21.8712 46.8027 21.7067 45.8915 21.5423C43.2407 21.0489 42.9922 20.9667 41.9154 20.8023L40.1758 20.5556C39.2646 20.3912 37.5251 20.1445 34.7915 19.8978C32.3064 19.0756 25.0997 18.9112 22.7803 19.0756ZM54.0094 24.8312C54.5892 24.9134 55.6661 24.9956 56.4945 24.9956C57.9027 25.0778 58.3168 25.1601 58.3168 25.2423C58.3168 25.4067 58.1512 25.4889 57.4885 25.6534C56.6601 25.8178 55.7489 25.9823 54.9206 26.1467C54.0094 26.3112 53.4295 26.4756 53.0154 26.6401C52.8497 26.7223 52.5183 26.8045 52.3527 26.8045C52.187 26.8045 51.6071 26.9689 51.2758 27.0512C50.5303 27.2156 49.9504 27.3801 48.8736 27.6267C48.6251 27.7089 48.2937 27.7912 48.128 27.8734C47.8795 27.9556 47.2997 28.1201 46.14 28.4489C45.7258 28.5312 45.3945 28.6956 45.2288 28.6956C45.146 28.7778 44.8974 28.7778 44.6489 28.8601C44.4833 28.9423 44.1519 29.0245 43.9862 29.0245C43.8206 29.1067 42.9094 29.4356 41.8325 29.7645C40.8385 30.0934 39.8445 30.4223 39.7616 30.4223C39.6788 30.5045 39.0989 30.6689 38.6019 30.8334C38.1049 30.9978 37.5251 31.2445 37.3594 31.3267C36.9452 31.4912 35.2057 32.2312 34.7915 32.3956C34.6258 32.4778 34.2116 32.6423 33.9631 32.7245C32.5549 33.3823 32.0579 33.6289 31.478 33.8756C29.987 34.5334 27.1706 36.0134 25.5139 37.0001C24.3542 37.6578 22.7803 38.7267 22.6146 38.8089C22.6146 38.8089 22.2833 39.0556 21.8691 39.3023C21.4549 39.5489 21.0407 39.8778 20.8751 40.0423C20.7094 40.2067 20.2124 40.5356 19.881 40.8645C17.6445 42.5912 14.7452 45.7156 13.9168 47.3601C13.7512 47.6889 13.337 48.1001 13.2542 47.9356L12.9228 47.3601C12.5086 46.7023 12.1773 45.9623 11.8459 45.2223C11.7631 45.0578 11.6803 44.8112 11.6803 44.7289C11.6803 44.6467 11.5974 44.4823 11.5146 44.3178C10.7691 42.5089 10.4377 39.5489 10.9348 37.9867C11.1004 37.0001 11.4318 36.4245 12.0945 35.5201C13.7512 33.3823 16.8161 30.9978 19.2183 29.7645C21.3721 28.6134 23.443 27.8734 26.0937 27.0512C26.5079 26.9689 26.9221 26.8045 27.1706 26.7223C27.3362 26.6401 27.9161 26.5578 28.2474 26.4756C29.49 26.2289 30.7325 25.9001 32.0579 25.6534C33.3833 25.4067 34.2945 25.3245 35.04 25.2423C35.4542 25.1601 36.1168 25.0778 36.4482 25.0778C36.7795 24.9956 37.6907 24.9134 38.4362 24.9134C39.1818 24.8312 39.9273 24.8312 40.0101 24.7489C40.59 24.6667 51.69 24.5845 54.0094 24.8312ZM59.0624 26.3112C59.0624 26.3934 58.731 26.7223 58.234 27.2156C57.3228 28.0378 56.4945 28.8601 55.5833 29.6001C54.5064 30.5045 51.9385 33.1356 51.0273 34.1223C50.8616 34.2867 50.2818 34.9445 49.7848 35.4378C48.7079 36.5889 49.0392 36.2601 46.637 39.0556C46.14 39.6312 45.4773 40.4534 45.0631 41.0289C44.6489 41.5223 44.3176 42.0156 44.2348 42.1801C43.6549 42.9201 43.4064 43.2489 43.0751 43.7423C42.9094 44.0712 42.6609 44.3178 42.6609 44.4001C42.4124 44.6467 41.3355 46.4556 40.7557 47.5245C40.1758 48.5934 39.8445 49.1689 39.2646 50.2378C38.8504 51.1423 38.4362 52.2934 37.9392 53.1156C37.7736 53.3623 37.2765 54.9245 37.028 55.7467C36.8624 56.4045 36.6139 57.0623 36.531 57.7201C36.531 57.9667 36.4482 58.4601 36.3654 58.7067C36.1168 59.7756 36.1168 63.3112 36.3654 64.4623C36.4482 64.7912 36.1997 64.9556 35.7855 64.7089L35.4542 64.5445C35.3713 64.5445 35.2057 64.4623 35.1228 64.3801C32.8862 63.3112 31.8922 62.8178 31.7265 62.5712L31.0639 62.0778C30.0698 61.3378 28.8273 60.2689 28.4131 59.6112C27.3362 58.2134 27.0049 57.3912 26.6736 55.7467C26.4251 55.089 26.5079 53.4445 26.8392 52.1289C27.0877 51.2245 27.0877 50.9778 27.1706 50.8956C27.2534 50.8134 27.2534 50.7312 27.2534 50.6489C27.2534 50.5667 27.4191 50.1556 27.5848 49.8267C27.7504 49.4156 27.9161 49.0867 27.9161 49.0867C27.9161 49.0867 28.0818 48.6756 28.3303 48.3467C28.5788 47.9356 28.7445 47.6067 28.7445 47.6067C28.7445 47.5245 29.3243 46.6201 29.9042 45.8801C31.478 43.6601 34.6258 40.5356 37.1937 38.4801C40.2586 36.0956 42.8265 34.3689 45.643 32.7245C45.7258 32.6423 45.9743 32.5601 46.14 32.3956C46.3057 32.3134 46.637 32.0667 46.9683 31.9845C47.2168 31.8201 47.4654 31.7378 47.5482 31.6556C47.7139 31.4912 52.6012 28.9423 54.5892 28.0378L56.2459 27.2978C56.743 27.0512 57.3228 26.8045 57.5713 26.7223L58.234 26.3934C58.6482 26.2289 58.9795 26.1467 59.0624 26.3112Z" fill="#233AB3"/>
</g>
<defs>
<clipPath id="clip0_633_632">
<rect width="111" height="74" fill="white"/>
</clipPath>
</defs>
</svg>
