<svg width="50" height="50" viewBox="0 0 50 50" fill="none" xmlns="http://www.w3.org/2000/svg">
<mask id="mask0_443_2251" style="mask-type:alpha" maskUnits="userSpaceOnUse" x="0" y="0" width="50" height="50">
<path d="M44.5312 19.4429C43.8242 18.9313 43.2438 18.2887 42.8281 17.5572C42.6742 16.7054 42.7222 15.8334 42.9688 15C43.2422 13.5715 43.5312 12.1429 42.6797 11.0857C41.8281 10.0286 40.2188 9.80716 38.6719 9.61431C37.7439 9.57588 36.8356 9.35671 36.0078 8.97145C35.361 8.37452 34.8603 7.6587 34.5391 6.87145C33.875 5.59288 33.1719 4.28574 31.7578 3.82859C30.3438 3.37145 29 4.11431 27.6484 4.77859C26.8495 5.26102 25.9461 5.58018 25 5.71431C24.0518 5.58335 23.1457 5.26659 22.3438 4.78574C20.9922 4.12145 19.5938 3.43574 18.2344 3.83574C16.875 4.23574 16.1172 5.59288 15.4453 6.89288C15.1245 7.68033 14.6238 8.39623 13.9766 8.99288C13.1487 9.37814 12.2405 9.59731 11.3125 9.63574C9.75 9.82859 8.1875 10.0215 7.30469 11.1072C6.42188 12.1929 6.73438 13.6143 7.03125 15C7.27932 15.8306 7.32994 16.7001 7.17969 17.55C6.76267 18.2848 6.17944 18.93 5.46875 19.4429C4.36719 20.3929 3.125 21.4715 3.125 22.8572C3.125 24.2429 4.36719 25.3214 5.46875 26.2715C6.17576 26.783 6.75621 27.4257 7.17188 28.1572C7.3258 29.0089 7.27784 29.881 7.03125 30.7143C6.75781 32.1429 6.46875 33.5715 7.32031 34.6286C8.17188 35.6857 9.78125 35.9072 11.3281 36.1C12.2561 36.1384 13.1644 36.3576 13.9922 36.7429C14.639 37.3398 15.1397 38.0556 15.4609 38.8429C16.1406 40.1429 16.8438 41.4786 18.25 41.9C19.6562 42.3214 21.0078 41.6143 22.3594 40.95C23.1547 40.4635 24.0553 40.1395 25 40C25.9482 40.131 26.8543 40.4477 27.6563 40.9286C28.6365 41.5173 29.7558 41.8846 30.9219 42C31.2084 42.0006 31.4932 41.9596 31.7656 41.8786C33.1797 41.4572 33.8828 40.1214 34.5547 38.8214C34.8755 38.034 35.3762 37.3181 36.0234 36.7215C36.8513 36.3362 37.7595 36.117 38.6875 36.0786C40.25 35.8857 41.8125 35.6929 42.6953 34.6072C43.5781 33.5215 43.2656 32.0929 42.9844 30.6929C42.7363 29.8623 42.6857 28.9928 42.8359 28.1429C43.2512 27.4172 43.8288 26.7796 44.5312 26.2715C45.625 25.3214 46.875 24.2429 46.875 22.8572C46.875 21.4715 45.6328 20.3929 44.5312 19.4429ZM43.4531 25.2357C42.5439 25.8963 41.8206 26.7461 41.3438 27.7143C41.0949 28.7873 41.1297 29.899 41.4453 30.9572C41.6641 32.0572 41.8906 33.1929 41.4453 33.7715C41 34.35 39.7109 34.4857 38.4922 34.6643C37.3015 34.715 36.1414 35.0261 35.1094 35.5715C34.2352 36.2945 33.5628 37.1982 33.1484 38.2072C32.6094 39.2357 32.0547 40.2929 31.2812 40.5215C30.5078 40.75 29.4609 40.1929 28.3984 39.6715C27.3784 39.0612 26.2128 38.6839 25 38.5715C23.7872 38.6842 22.6218 39.0614 21.6016 39.6715C20.5391 40.1929 19.4375 40.7357 18.7187 40.5215C18 40.3072 17.3906 39.2286 16.8516 38.2072C16.4372 37.1982 15.7648 36.2945 14.8906 35.5715C13.8586 35.0261 12.6985 34.715 11.5078 34.6643C10.2891 34.5143 9.02344 34.3572 8.55469 33.7715C8.08594 33.1857 8.32031 32.0572 8.55469 30.9572C8.87055 29.899 8.90537 28.7872 8.65625 27.7143C8.17938 26.7461 7.45613 25.8963 6.54688 25.2357C5.63281 24.4429 4.6875 23.6286 4.6875 22.8572C4.6875 22.0857 5.63281 21.2715 6.53906 20.4786C7.44832 19.818 8.17157 18.9682 8.64844 18C8.89726 16.9271 8.86244 15.8153 8.54687 14.7572C8.32812 13.6572 8.10156 12.5215 8.54687 11.9429C8.99219 11.3643 10.2813 11.2286 11.5 11.05C12.6907 10.9993 13.8508 10.6882 14.8828 10.1429C15.757 9.41986 16.4294 8.51614 16.8438 7.50716C17.3906 6.47859 17.9688 5.42145 18.75 5.19288C19.5312 4.96431 20.5703 5.52145 21.6328 6.04288C22.6437 6.64887 23.798 7.02594 25 7.14288C26.2128 7.03012 27.3782 6.65289 28.3984 6.04288C29.4609 5.51431 30.5625 5.00002 31.25 5.19288C31.9375 5.38574 32.5781 6.48574 33.1172 7.50716C33.5316 8.51614 34.2039 9.41986 35.0781 10.1429C36.1102 10.6882 37.2702 10.9993 38.4609 11.05C39.6797 11.2 40.9453 11.3572 41.4141 11.9429C41.8828 12.5286 41.6484 13.6572 41.4141 14.7572C41.0982 15.8153 41.0634 16.9271 41.3125 18C41.7894 18.9682 42.5126 19.818 43.4219 20.4786C44.3672 21.2715 45.3125 22.0857 45.3125 22.8572C45.3125 23.6286 44.3672 24.4429 43.4609 25.2357H43.4531Z" fill="#0D0DAE"/>
<path d="M25 10.7143C22.3732 10.7143 19.8054 11.4265 17.6213 12.7607C15.4372 14.095 13.735 15.9915 12.7297 18.2103C11.7245 20.4291 11.4615 22.8706 11.974 25.2261C12.4864 27.5816 13.7513 29.7452 15.6087 31.4434C17.4662 33.1417 19.8327 34.2982 22.409 34.7667C24.9853 35.2352 27.6557 34.9948 30.0825 34.0757C32.5093 33.1566 34.5836 31.6002 36.043 29.6034C37.5023 27.6065 38.2813 25.2588 38.2813 22.8572C38.2813 19.6367 36.882 16.5481 34.3913 14.2709C31.9006 11.9936 28.5224 10.7143 25 10.7143ZM25 33.5714C22.6823 33.5714 20.4166 32.9431 18.4894 31.7658C16.5623 30.5885 15.0603 28.9151 14.1733 26.9573C13.2863 24.9995 13.0543 22.8453 13.5064 20.7669C13.9586 18.6885 15.0747 16.7794 16.7136 15.281C18.3525 13.7826 20.4406 12.7622 22.7138 12.3487C24.987 11.9353 27.3433 12.1475 29.4846 12.9584C31.6259 13.7694 33.4561 15.1427 34.7438 16.9046C36.0315 18.6666 36.7188 20.7381 36.7188 22.8572C36.7188 25.6988 35.4841 28.424 33.2864 30.4333C31.0887 32.4426 28.108 33.5714 25 33.5714Z" fill="#0D0DAE"/>
<path d="M21.875 21.4286C22.4931 21.4286 23.0973 21.261 23.6112 20.9471C24.1251 20.6331 24.5256 20.1869 24.7621 19.6648C24.9986 19.1427 25.0605 18.5683 24.94 18.014C24.8194 17.4598 24.5217 16.9507 24.0847 16.5511C23.6477 16.1516 23.0908 15.8794 22.4847 15.7692C21.8785 15.659 21.2501 15.7155 20.6791 15.9318C20.1081 16.148 19.62 16.5142 19.2767 16.9841C18.9333 17.454 18.75 18.0063 18.75 18.5714C18.75 19.3292 19.0792 20.0559 19.6653 20.5917C20.2513 21.1276 21.0462 21.4286 21.875 21.4286ZM21.875 17.1429C22.184 17.1429 22.4861 17.2267 22.7431 17.3836C23 17.5406 23.2003 17.7637 23.3186 18.0247C23.4368 18.2858 23.4678 18.573 23.4075 18.8501C23.3472 19.1273 23.1984 19.3818 22.9799 19.5816C22.7613 19.7814 22.4829 19.9174 22.1798 19.9726C21.8767 20.0277 21.5626 19.9994 21.2771 19.8913C20.9915 19.7831 20.7475 19.6 20.5758 19.3651C20.4041 19.1302 20.3125 18.854 20.3125 18.5714C20.3125 18.1926 20.4771 17.8292 20.7701 17.5613C21.0632 17.2934 21.4606 17.1429 21.875 17.1429Z" fill="#0D0DAE"/>
<path d="M28.125 23.5714C27.5069 23.5714 26.9027 23.739 26.3888 24.0529C25.8749 24.3669 25.4744 24.8131 25.2379 25.3352C25.0014 25.8572 24.9395 26.4317 25.06 26.986C25.1806 27.5402 25.4783 28.0493 25.9153 28.4489C26.3523 28.8484 26.9092 29.1206 27.5153 29.2308C28.1215 29.341 28.7499 29.2845 29.3209 29.0682C29.8919 28.852 30.38 28.4858 30.7233 28.0159C31.0667 27.546 31.25 26.9936 31.25 26.4286C31.25 25.6708 30.9208 24.9441 30.3347 24.4082C29.7487 23.8724 28.9538 23.5714 28.125 23.5714ZM28.125 27.8571C27.816 27.8571 27.5139 27.7733 27.2569 27.6164C27 27.4594 26.7997 27.2363 26.6814 26.9752C26.5632 26.7142 26.5322 26.427 26.5925 26.1499C26.6528 25.8727 26.8016 25.6182 27.0201 25.4184C27.2387 25.2186 27.5171 25.0826 27.8202 25.0274C28.1233 24.9723 28.4374 25.0006 28.7229 25.1087C29.0085 25.2169 29.2525 25.4 29.4242 25.6349C29.5959 25.8698 29.6875 26.146 29.6875 26.4286C29.6875 26.8074 29.5229 27.1708 29.2299 27.4387C28.9368 27.7066 28.5394 27.8571 28.125 27.8571Z" fill="#0D0DAE"/>
<path d="M29.352 16.5571C29.1811 16.4501 28.9706 16.4095 28.767 16.4444C28.5633 16.4792 28.3832 16.5866 28.2661 16.7428L19.6723 28.1714C19.5583 28.3277 19.5162 28.5189 19.5552 28.7034C19.5943 28.8879 19.7112 29.0509 19.8808 29.1571C20.0504 29.2633 20.2589 29.3041 20.4612 29.2707C20.6635 29.2372 20.8432 29.1323 20.9614 28.9785L29.5551 17.55C29.6722 17.3937 29.7166 17.2013 29.6785 17.0151C29.6404 16.8289 29.5229 16.6642 29.352 16.5571Z" fill="#0D0DAE"/>
</mask>
<g mask="url(#mask0_443_2251)">
<path d="M-7.5 -3.74994H56.5625V54.8215H-7.5V-3.74994Z" fill="#D63C3C"/>
</g>
</svg>
