<svg width="50" height="50" viewBox="0 0 50 50" fill="none" xmlns="http://www.w3.org/2000/svg">
<mask id="mask0_443_2233" style="mask-type:alpha" maskUnits="userSpaceOnUse" x="0" y="0" width="50" height="50">
<path d="M39.1996 40.9235L36.7796 33.7806L44.9296 31.0051L44.6096 30.0408L35.9996 32.9796L33.0896 33.9694C32.2946 33.2908 29.6346 31.1837 26.9996 31.6327C26.2222 31.7786 25.4673 32.029 24.7546 32.3776C23.9904 31.7929 23.1068 31.3917 22.1696 31.2041C20.8546 30.9133 17.9196 32.8317 16.9496 33.5L14.0046 32.4796L5.38957 29.5919L5.06957 30.5612L13.2196 33.3368L10.7996 40.4796L4.39957 38.0663L4.05957 39.0255L14.2496 42.8163L16.7496 43.9031C16.6385 44.2214 16.6269 44.5671 16.7164 44.8924C16.806 45.2177 16.9923 45.5067 17.2496 45.7194C17.4907 45.9072 17.7862 46.0078 18.0896 46.0051C18.4785 45.9923 18.8547 45.8608 19.1696 45.6276C19.2574 45.8086 19.3838 45.9672 19.5396 46.0919C19.8163 46.3055 20.1526 46.4235 20.4996 46.4286C20.9359 46.4166 21.3609 46.2843 21.7296 46.0459C21.8129 46.2976 21.9615 46.5215 22.1596 46.6939C22.4481 46.9486 22.8181 47.0865 23.1996 47.0817C23.5163 47.0661 23.8265 46.9837 24.1105 46.8397C24.3945 46.6957 24.6461 46.4931 24.8496 46.2449C25.2496 45.8061 25.3246 45.7347 25.4846 45.5561C27.9496 45.8776 29.3646 46.0663 29.7996 46.1327C29.8695 46.1377 29.9397 46.1377 30.0096 46.1327C30.2561 46.1264 30.4979 46.0624 30.7164 45.9456C30.9349 45.8289 31.1241 45.6624 31.2696 45.4592C31.3396 45.3623 31.3996 45.2602 31.4596 45.1582L35.7246 43.301L45.9396 39.5L45.5996 38.5408L39.1996 40.9235ZM38.2596 41.2704L35.8696 42.1582L33.5846 34.8725L35.8296 34.1021L38.2596 41.2704ZM33.2596 41.699C33.2345 41.637 33.2044 41.5773 33.1696 41.5204C33.666 41.3302 34.0698 40.9493 34.2946 40.4592L34.9446 42.5357L32.9446 43.4133L32.9896 43.3674C33.1722 43.1368 33.2923 42.8614 33.3379 42.5686C33.3836 42.2758 33.3531 41.976 33.2496 41.699H33.2596ZM27.0546 34.7347L22.1246 36.9898C21.4096 37.3163 20.9646 37.1225 20.8046 36.8521C20.7437 36.7654 20.7181 36.658 20.733 36.5525C20.7479 36.4469 20.8022 36.3514 20.8846 36.2857L21.0996 36.1072C22.0996 35.2806 24.6846 33.0817 27.1846 32.648C29.4996 32.2449 31.9996 34.3776 32.4996 34.8317L32.7996 35.7143L32.6196 35.6684C31.3546 35.4439 27.3496 34.6939 27.3496 34.6939L27.0546 34.7347ZM14.1696 33.6327L16.4146 34.398L14.1296 41.6888L11.7396 40.8163L14.1696 33.6327ZM17.8296 44.898C17.6146 44.7296 17.5646 44.2908 17.8696 43.8776L19.4996 41.5561C19.6196 41.3827 19.8496 41.1021 20.1246 41.1021H20.1646C20.2761 41.124 20.3804 41.1743 20.4678 41.2484C20.5552 41.3224 20.6229 41.4177 20.6646 41.5255C20.7176 41.6402 20.74 41.7671 20.7294 41.8935C20.7189 42.0198 20.6758 42.141 20.6046 42.2449L20.1996 42.8572C19.9746 43.1735 19.9746 43.1735 19.4896 43.8061L19.2496 44.1174C18.6296 44.9388 18.0796 45.1021 17.8296 44.898ZM20.1246 45.2704C19.8896 45.0868 20.0696 44.7602 20.1646 44.6378L21.9996 42.2959C22.1246 42.1174 22.3796 41.8214 22.6646 41.847C22.7785 41.874 22.8846 41.9282 22.9741 42.0051C23.0635 42.0821 23.1338 42.1796 23.1792 42.2896C23.2246 42.3996 23.2437 42.5191 23.2351 42.6381C23.2265 42.7572 23.1903 42.8725 23.1296 42.9745C22.9596 43.1786 22.3896 43.9235 22.0446 44.3725C21.2596 45.4082 20.4496 45.5255 20.1246 45.2806V45.2704ZM24.1246 45.5204C23.5496 46.148 23.0646 46.1174 22.8196 45.898C22.7708 45.8584 22.7303 45.8092 22.7005 45.7533C22.6707 45.6975 22.6522 45.636 22.6462 45.5727C22.6401 45.5094 22.6466 45.4455 22.6652 45.3848C22.6838 45.3241 22.7142 45.2679 22.7546 45.2194C22.8246 45.1378 23.4446 44.4133 24.2546 43.5C24.3318 43.4218 24.4284 43.3663 24.534 43.3393C24.6396 43.3124 24.7503 43.315 24.8546 43.347C24.9957 43.3766 25.1279 43.4402 25.2401 43.5325C25.3523 43.6248 25.4412 43.7431 25.4996 43.8776C25.5143 43.9253 25.514 43.9766 25.4988 44.0241C25.4836 44.0717 25.4541 44.1132 25.4146 44.1429L24.8446 44.75C24.6196 44.9847 24.5946 45.0102 24.1196 45.5306L24.1246 45.5204ZM30.4996 44.8317C30.4397 44.9204 30.3588 44.9922 30.2643 45.0404C30.1699 45.0885 30.0651 45.1115 29.9596 45.1072L26.3296 44.597C26.4266 44.4486 26.4911 44.2807 26.5187 44.1046C26.5463 43.9285 26.5364 43.7484 26.4896 43.5766C26.3818 43.2674 26.1977 42.9918 25.9551 42.7764C25.7125 42.561 25.4196 42.4131 25.1046 42.347C24.8208 42.2727 24.5233 42.2727 24.2396 42.347C24.2132 42.1712 24.1645 41.9997 24.0946 41.8368C23.9813 41.5627 23.7992 41.324 23.5665 41.1448C23.3338 40.9656 23.0589 40.8523 22.7696 40.8163C22.5653 40.799 22.3597 40.8235 22.1648 40.8883C21.9699 40.9532 21.7896 41.0571 21.6346 41.1939C21.6346 41.1633 21.6346 41.1276 21.5996 41.097C21.4855 40.8225 21.3024 40.5836 21.0689 40.4044C20.8354 40.2253 20.5597 40.1122 20.2696 40.0766C19.9542 40.0583 19.6401 40.1302 19.3627 40.2844C19.0853 40.4386 18.8556 40.6687 18.6996 40.949L17.2496 42.9898L15.0596 42.0357L17.4646 34.3827C19.1646 33.2041 21.3246 32.051 21.9646 32.1939C22.5946 32.3311 23.1989 32.5706 23.7546 32.9031C22.5877 33.6039 21.4834 34.408 20.4546 35.3061L20.2496 35.4796C19.9794 35.7017 19.7992 36.0179 19.7438 36.3673C19.6884 36.7168 19.7617 37.0748 19.9496 37.3725C20.3496 38.0408 21.3096 38.4643 22.5296 37.8827L27.3196 35.7143C28.0546 35.8521 31.3196 36.4592 32.4496 36.6582C32.6667 36.6944 32.8672 36.7989 33.0232 36.9572C33.1792 37.1155 33.2828 37.3195 33.3196 37.5408C33.3239 37.6836 33.2816 37.8238 33.1992 37.9393C33.1168 38.0548 32.9991 38.139 32.8646 38.1786L26.9196 37.2449C26.787 37.2239 26.6516 37.2576 26.5433 37.3384C26.435 37.4193 26.3626 37.5407 26.3421 37.676C26.3215 37.8114 26.3545 37.9495 26.4337 38.06C26.5129 38.1705 26.632 38.2444 26.7646 38.2653L32.8296 39.2398C33.2596 39.3163 33.4796 39.5561 33.4246 39.8878C33.3696 40.2194 32.8596 40.8163 31.7696 40.6684L26.6646 39.7959C26.5995 39.7842 26.5329 39.7858 26.4684 39.8005C26.404 39.8153 26.343 39.8429 26.2891 39.8818C26.2352 39.9207 26.1894 39.9701 26.1542 40.0272C26.1191 40.0842 26.0955 40.1478 26.0846 40.2143C26.0717 40.2818 26.0723 40.3512 26.0863 40.4185C26.1004 40.4857 26.1276 40.5493 26.1663 40.6056C26.2051 40.6618 26.2546 40.7094 26.3119 40.7457C26.3691 40.7819 26.433 40.8059 26.4996 40.8163C26.6996 40.8521 31.4696 41.6735 31.6196 41.6939C31.8346 41.6939 32.2046 41.8163 32.3146 42.0919C32.347 42.2039 32.3512 42.3226 32.3267 42.4367C32.3023 42.5509 32.2499 42.6569 32.1746 42.7449C32.0988 42.8459 31.9985 42.9249 31.8836 42.9741C31.7687 43.0233 31.6432 43.0411 31.5196 43.0255L30.5696 42.8572C29.0696 42.5919 26.9696 42.1939 26.9446 42.1888C26.812 42.1638 26.675 42.1935 26.5639 42.2715C26.4528 42.3495 26.3766 42.4693 26.3521 42.6046C26.3275 42.7399 26.3567 42.8796 26.4331 42.993C26.5095 43.1064 26.627 43.1842 26.7596 43.2092C26.7896 43.2092 28.9346 43.6225 30.4646 43.8929C30.6346 43.8929 30.6746 44 30.6896 44.0408C30.7167 44.1788 30.7137 44.3212 30.6809 44.4578C30.6481 44.5945 30.5861 44.7221 30.4996 44.8317Z" fill="#0D0DAE"/>
<path d="M17.5 6.12244V27.551H32.5V21.3469L37.61 16.1326L35.5 13.9694L32.5 17.0306V6.12244H17.5ZM18.5 26.5306V7.14284H31.5V18.0408L29.41 20.1735L27.965 23.7449H24.58V24.7653H29.325V23.7449H28.27L31.5 22.352V26.5306H18.5ZM36.195 16.1326L30.965 21.4745L29.755 21.9847L30.255 20.75L35.5 15.4133L36.195 16.1326Z" fill="#0D0DAE"/>
<path d="M28 8.66833H22V9.68874H28V8.66833Z" fill="#0D0DAE"/>
<path d="M29.5 11.7346H20.5V12.755H29.5V11.7346Z" fill="#0D0DAE"/>
<path d="M29.5 13.7755H20.5V14.7959H29.5V13.7755Z" fill="#0D0DAE"/>
<path d="M29.5 15.8163H20.5V16.8368H29.5V15.8163Z" fill="#0D0DAE"/>
<path d="M23.5 19.1888H20.5V20.2093H23.5V19.1888Z" fill="#0D0DAE"/>
<path d="M11 7.14288H10V8.6735H11V7.14288Z" fill="#0D0DAE"/>
<path d="M11 10.7143H10V12.2449H11V10.7143Z" fill="#0D0DAE"/>
<path d="M9.5 9.18365H8V10.2041H9.5V9.18365Z" fill="#0D0DAE"/>
<path d="M13 9.18365H11.5V10.2041H13V9.18365Z" fill="#0D0DAE"/>
<path d="M42.5 20.9184H41.5V22.449H42.5V20.9184Z" fill="#0D0DAE"/>
<path d="M42.5 24.4898H41.5V26.0204H42.5V24.4898Z" fill="#0D0DAE"/>
<path d="M41 22.9592H39.5V23.9796H41V22.9592Z" fill="#0D0DAE"/>
<path d="M44.5 22.9592H43V23.9796H44.5V22.9592Z" fill="#0D0DAE"/>
</mask>
<g mask="url(#mask0_443_2233)">
<rect x="2" y="2" width="45.8333" height="45.8333" fill="#D63C3C"/>
</g>
</svg>
